<svg width="101.183716" height="67.000000" viewBox="0 0 101.184 67" fill="none" xmlns="http://www.w3.org/2000/svg" xmlns:xlink="http://www.w3.org/1999/xlink">
	<desc>
			Created with Pixso.
	</desc>
	<defs>
		<clipPath id="clip15_90">
			<rect id="Frame" rx="-0.500000" width="34.669117" height="35.076923" transform="translate(66.014648 0.500000)" fill="white" fill-opacity="0"/>
		</clipPath>
	</defs>
	<path id="Vector" d="M71.83 66.85L71.83 39.99L90.99 39.99L90.99 45.86L79.05 45.86L79.05 50.48L90 50.48L90 56.36L79.05 56.36L79.05 60.97L90.94 60.97L90.94 66.85L71.83 66.85Z" fill="#FFFFFF" fill-opacity="1.000000" fill-rule="nonzero"/>
	<path id="Vector" d="M37.78 39.99L46.77 39.99L52.94 55.2L53.25 55.2L59.43 39.99L68.41 39.99L68.41 66.85L61.35 66.85L61.35 51.32L61.14 51.32L55.23 66.64L50.97 66.64L45.05 51.21L44.84 51.21L44.84 66.85L37.78 66.85L37.78 39.99Z" fill="#FFFFFF" fill-opacity="1.000000" fill-rule="nonzero"/>
	<path id="Vector" d="M34.36 39.99L34.36 66.85L27.15 66.85L27.15 39.99L34.36 39.99Z" fill="#FFFFFF" fill-opacity="1.000000" fill-rule="nonzero"/>
	<path id="Vector" d="M1.33 45.86L1.33 39.99L24.43 39.99L24.43 45.86L16.44 45.86L16.44 66.85L9.33 66.85L9.33 45.86L1.33 45.86Z" fill="#FFFFFF" fill-opacity="1.000000" fill-rule="nonzero"/>
	<path id="Vector" d="M47.62 34.87L47.62 12.75L57.06 12.75C58.68 12.75 60.1 13.08 61.32 13.73C62.54 14.37 63.49 15.28 64.16 16.46C64.84 17.63 65.18 19 65.18 20.57C65.18 22.16 64.83 23.53 64.13 24.69C63.44 25.84 62.47 26.74 61.22 27.36C59.97 27.99 58.51 28.3 56.85 28.3L51.21 28.3L51.21 23.64L55.65 23.64C56.35 23.64 56.94 23.52 57.43 23.27C57.93 23.02 58.31 22.66 58.58 22.2C58.85 21.74 58.98 21.2 58.98 20.57C58.98 19.94 58.85 19.4 58.58 18.95C58.31 18.5 57.93 18.15 57.43 17.92C56.94 17.67 56.35 17.55 55.65 17.55L53.56 17.55L53.56 34.87L47.62 34.87Z" fill="#64099B" fill-opacity="1.000000" fill-rule="nonzero"/>
	<path id="Vector" d="M38.13 12.75L44.06 12.75L44.06 26.92C44.06 28.61 43.67 30.06 42.87 31.29C42.08 32.52 40.97 33.47 39.56 34.13C38.14 34.8 36.49 35.13 34.62 35.13C32.73 35.13 31.08 34.8 29.66 34.13C28.25 33.47 27.14 32.52 26.35 31.29C25.57 30.06 25.18 28.61 25.18 26.92L25.18 12.75L31.12 12.75L31.12 26.4C31.12 27.09 31.27 27.7 31.57 28.24C31.86 28.77 32.28 29.19 32.8 29.49C33.34 29.79 33.94 29.94 34.62 29.94C35.3 29.94 35.91 29.79 36.44 29.49C36.96 29.19 37.38 28.77 37.68 28.24C37.98 27.7 38.13 27.09 38.13 26.4L38.13 12.75Z" fill="#64099B" fill-opacity="1.000000" fill-rule="nonzero"/>
	<path id="Vector" d="M22.48 21.05L16.46 21.05C16.41 20.54 16.3 20.09 16.12 19.68C15.94 19.26 15.69 18.91 15.37 18.62C15.05 18.31 14.67 18.08 14.22 17.93C13.78 17.76 13.27 17.68 12.7 17.68C11.7 17.68 10.86 17.92 10.16 18.41C9.48 18.9 8.96 19.6 8.61 20.52C8.26 21.43 8.08 22.53 8.08 23.81C8.08 25.16 8.26 26.3 8.62 27.21C8.98 28.12 9.5 28.8 10.19 29.26C10.87 29.72 11.69 29.94 12.65 29.94C13.2 29.94 13.69 29.88 14.13 29.74C14.56 29.6 14.94 29.39 15.26 29.12C15.58 28.86 15.84 28.54 16.04 28.16C16.25 27.78 16.39 27.35 16.46 26.88L22.48 26.92C22.41 27.86 22.15 28.81 21.7 29.78C21.25 30.75 20.62 31.64 19.79 32.46C18.97 33.27 17.96 33.93 16.75 34.43C15.53 34.92 14.13 35.17 12.53 35.17C10.52 35.17 8.72 34.74 7.12 33.86C5.53 32.99 4.28 31.71 3.35 30.02C2.43 28.33 1.97 26.26 1.97 23.81C1.97 21.35 2.44 19.28 3.38 17.59C4.32 15.9 5.59 14.62 7.18 13.76C8.78 12.89 10.56 12.45 12.53 12.45C13.91 12.45 15.18 12.64 16.34 13.02C17.5 13.4 18.52 13.96 19.4 14.7C20.27 15.42 20.98 16.32 21.51 17.39C22.04 18.45 22.37 19.67 22.48 21.05Z" fill="#64099B" fill-opacity="1.000000" fill-rule="nonzero"/>
	<rect id="Frame" rx="-0.500000" width="34.669117" height="35.076923" transform="translate(66.014648 0.500000)" fill="#FFFFFF" fill-opacity="0"/>
	<g clip-path="url(#clip15_90)">
		<path id="Vector" d="M96.93 22.26L96.93 16.98L90.66 16.98L90.66 12.68L69.76 12.68L69.76 31.84C69.76 34.18 71.64 36.07 73.94 36.07L86.48 36.07C88.78 36.07 90.66 34.18 90.66 31.84L90.66 29.62C94.19 29.11 96.93 25.98 96.93 22.26ZM94.84 22.26C94.84 24.81 93.04 27.02 90.66 27.51L90.66 19.09L94.84 19.09L94.84 22.26ZM74.93 1.57L73.53 0C70.6 2.66 72.17 4.71 73.12 5.93C74.03 7.13 74.38 7.57 73.2 8.76L74.68 10.26C77.16 7.75 75.66 5.8 74.76 4.63C73.8 3.38 73.44 2.92 74.93 1.57ZM80.15 1.57L78.75 0C75.82 2.66 77.4 4.71 78.34 5.93C79.26 7.13 79.6 7.57 78.43 8.76L79.9 10.26C82.39 7.75 80.89 5.8 79.99 4.63C79.03 3.38 78.67 2.92 80.15 1.57ZM85.37 1.57L83.98 0C81.05 2.66 82.62 4.71 83.56 5.93C84.48 7.13 84.83 7.57 83.65 8.76L85.13 10.26C87.61 7.75 86.11 5.8 85.21 4.63C84.25 3.38 83.89 2.92 85.37 1.57Z" fill="#64099B" fill-opacity="1.000000" fill-rule="nonzero"/>
	</g>
</svg>
