<svg width="20.633057" height="23.336060" viewBox="0 0 20.6331 23.3361" fill="none" xmlns="http://www.w3.org/2000/svg" xmlns:xlink="http://www.w3.org/1999/xlink">
	<desc>
			Created with Pixso.
	</desc>
	<defs/>
	<path id="Vector" d="M19.6 8.12C18.82 7.25 17.64 6.75 16.01 6.58L16.01 5.69C16.01 4.09 15.33 2.55 14.14 1.48C12.94 0.38 11.37 -0.13 9.75 0.02C6.96 0.29 4.62 2.98 4.62 5.9L4.62 6.58C2.99 6.75 1.81 7.25 1.03 8.12C-0.11 9.38 -0.07 11.06 0.06 12.22L0.87 18.72C1.12 21 2.04 23.33 7.06 23.33L13.57 23.33C18.58 23.33 19.51 21 19.75 18.73L20.57 12.21C20.7 11.06 20.72 9.38 19.6 8.12ZM9.92 1.64C11.08 1.54 12.19 1.9 13.05 2.68C13.91 3.45 14.38 4.55 14.38 5.69L14.38 6.51L6.24 6.51L6.24 5.9C6.24 3.82 7.96 1.83 9.92 1.64ZM6.14 13.01L6.12 13.01C5.48 13.01 4.96 12.48 4.96 11.84C4.96 11.2 5.48 10.67 6.12 10.67C6.78 10.67 7.3 11.2 7.3 11.84C7.3 12.48 6.78 13.01 6.14 13.01ZM14.3 13.01L14.29 13.01C13.65 13.01 13.12 12.48 13.12 11.84C13.12 11.2 13.65 10.67 14.29 10.67C14.94 10.67 15.47 11.2 15.47 11.84C15.47 12.48 14.94 13.01 14.3 13.01Z" fill="#FFFFFF" fill-opacity="1.000000" fill-rule="nonzero"/>
</svg>
